<svg xmlns="http://www.w3.org/2000/svg" xmlns:xlink="http://www.w3.org/1999/xlink" version="1.1" id="Layer_1" x="0px" y="0px" viewBox="0 0 90 32" enable-background="new 0 0 90 32" xml:space="preserve">
<g>
	<polygon fill-rule="evenodd" clip-rule="evenodd" fill="#5A6670" points="18.7,15.9 18.7,1.5 24.4,1.5 28.4,12.1 32.1,1.5 37.6,1.5 37.6,15.9 34,15.9 34,6.8 30.4,15.9 25.9,15.9 22.4,6.8 22.4,15.9 18.7,15.9"/>
	<path fill-rule="evenodd" clip-rule="evenodd" fill="#5A6670" d="M71.5 7.9c-0.3 0.5-0.6 0.9-0.7 1.4c-0.2 1.1 0.2 2.1 0.9 2.9 c0.7 0.7 1.7 0.9 2.7 0.8c0.9-0.3 2-1.1 2.2-2c0.4-1.2 0-2.5-0.9-3.4C75 7 74.2 6.8 73.5 6.7h-6.9v9.1h-3.6V1.5h3.6v2.3h7.9 c2.2 0 4.2 1.7 5 3.8c1 2.1 0.5 4.8-1 6.4c-1.7 1.8-3.9 2.5-6.3 2c-2.1-0.6-4.4-2.6-4.6-5c-0.2-1.1 0-2.1 0.5-3H71.5L71.5 7.9z"/>
	<path fill-rule="evenodd" clip-rule="evenodd" fill="#5A6670" d="M61 4.8c1 1.1 1.1 2.4 1.1 3.8v7.3h-3.3v-4.5 c0-1.7-0.3-3.9-1.2-4.4C56.6 6.5 56 6.7 55.3 7c-0.6 0.3-1 0.9-1 1.5v5.2H51v-10h3.3c0 0.4 0.1 0.8 0.2 1.1c0.6-0.4 1.1-1 1.8-1.2 C57.9 3.2 59.8 3.5 61 4.8L61 4.8z"/>
	<path fill-rule="evenodd" clip-rule="evenodd" fill="#5A6670" d="M84.2 3.9c0.2 0.3 0.1 0.6 0.1 0.9l0.1 0.1c0.9-1.5 2.9-0.9 4.5-1 v2.9c-1.3 0-2.7-0.2-3.9 0.3c-0.6 0.4-0.8 1-0.8 1.7v7.1h-3.8v-12H84.2L84.2 3.9z"/>
	<path fill-rule="evenodd" clip-rule="evenodd" fill="#5A6670" d="M49.4 6.3c0.8 1.5 0.9 3.3 0.9 5l-0.1 0l-7.9 0 c-0.1 0-0.1 0.2 0 0.2c0.9 1.1 2.3 1.7 3.6 1.5c1.2-0.1 2.1-0.6 3-1.2l0.1 0v2.6c-0.8 0.8-1.8 1.1-2.8 1.4 c-2.5 0.5-5.1-0.1-6.8-2.2c-1.3-1.7-1.7-4.2-0.9-6.3c0.6-1.8 2.3-3.5 4.2-3.9C45.4 2.8 48.2 4 49.4 6.3L49.4 6.3z M45.3 6.5 c-0.6-0.3-1.5-0.3-2.1 0c-0.6 0.4-1 1.1-1 1.8c0 0.1 0.2 0.2 0.3 0.2h3.7l0.2-0.1c0-0.4-0.1-0.7-0.2-1.1C46 7 45.6 6.7 45.3 6.5 L45.3 6.5z"/>
	<path fill-rule="evenodd" clip-rule="evenodd" fill="#5A6670" d="M14.5 27.6c-0.1-0.3 0-0.7-0.1-1.1c0-0.1-0.1-0.2-0.2-0.2 c-2.4 1.9-6.2 2.3-8.9 0.8c-3-1.5-4.5-4.7-4.3-8c0.2-2.6 1.9-5.1 4.3-6c1.2-0.6 2.6-0.6 4-0.6h8.5v3.4H7.5c-1.3 0-2.9 1.8-3.1 3.4 c-0.3 1.9 0.6 3.5 2.1 4.6c1.2 0.9 3.2 1.3 4.8 0.7c1.3-0.4 2.7-1.8 2.9-3.2c0-0.1 0.1-0.5-0.1-0.6H9.5v-3.2h8.4v10H14.5L14.5 27.6 z"/>
	<path fill-rule="evenodd" clip-rule="evenodd" fill="#5A6670" d="M62.1 27.6h-3.3V21c0-0.7-1-1.4-1.9-1.5c-0.9-0.1-2.5 0.7-2.5 1.7 c0 1 0 6.4 0 6.4H51V14.5h3.3c0 0 0 2.3 0.1 3.4l0.1 0c1.1-1.2 2.5-1.7 4.2-1.5c1.5 0.3 3.3 1.7 3.3 3.1V27.6L62.1 27.6z"/>
	<path fill-rule="evenodd" clip-rule="evenodd" fill="#5A6670" d="M25.9 19.4c-1.2 0.2-3.3-0.6-3.7 1.1v7.1h-3.4l0-11h3.5 c0 0 0 0.5 0.1 0.7c0.4-0.2 0.8-0.7 1.3-0.7h2.2V19.4L25.9 19.4z"/>
	<polygon fill-rule="evenodd" clip-rule="evenodd" fill="#5A6670" points="62.9,16.6 66.6,16.6 66.6,27.6 62.9,27.6 62.9,16.6"/>
	<path fill-rule="evenodd" clip-rule="evenodd" fill="#5A6670" d="M84.3 19.6h-5.1c-0.2 0-0.4 0.1-0.5 0.3c-0.1 0.2 0 0.5 0 0.6 c0.1 0.3 0.4 0.3 0.6 0.4c1.8 0.1 3.7-0.4 4.9 1.2c0.8 0.9 1.1 2.4 0.6 3.5c-0.4 1.1-1.6 2.1-2.7 2.1c-1.2 0-9.8 0-9.8 0 c-2.2 0-4.2-1.6-4.9-3.5c-0.8-2-0.3-4.5 1.3-6c1.6-1.6 3.9-1.5 6.1-1.4l0 2.7c-1.6 0-3.6-0.3-4.4 1.3c-0.4 0.7-0.5 1.8-0.1 2.6 c0.5 0.9 1.4 1.3 2.4 1.4h8.8c0.2-0.1 0.3-0.2 0.4-0.3c0.1-0.3 0-0.5-0.2-0.7l-0.3-0.1c-1.8-0.1-3.7 0.5-5.1-0.8 c-1-0.9-1.5-2.4-1-3.8c0.3-1.1 1.7-2.4 2.8-2.4h6V19.6L84.3 19.6z"/>
	<path fill-rule="evenodd" clip-rule="evenodd" fill="#5A6670" d="M26.1 19c1.1-2.1 3.3-2.7 5.5-2.4c0.8 0.1 1.6 0.4 2.3 0.9 c0.3-0.2-0.1-1.1 0.5-1h3.2v11h-3.4c0-0.2 0-0.4-0.2-0.6c-1.6 0.8-3.9 1-5.5 0c-2.1-1.1-3.2-3.3-3-5.7C25.6 20.8 25.8 19.7 26.1 19 L26.1 19z M32.4 19.2c-1.2-0.2-2.4 0.4-3 1.4c-0.5 0.8-0.4 2.1 0.1 2.9c0.6 0.9 1.8 1.4 2.9 1.2c0.6-0.1 1.4-0.5 1.6-1.1 c0-1.1 0-2.3 0-3.4C33.6 19.7 33.1 19.3 32.4 19.2L32.4 19.2z"/>
	<path fill-rule="evenodd" clip-rule="evenodd" fill="#5A6670" d="M38.8 16.6h3.5c0 0 0 0.5 0.2 0.6c0.7-0.3 1.5-0.6 2.3-0.7 c2.4-0.2 4.6 1.3 5.5 3.5c0.8 2.1 0.2 4.5-1.3 6c-1.5 1.6-3.9 2.1-5.9 1.4c-0.2 0-0.4-0.3-0.6-0.1l-0.1 0.1v3.1h-3.6V16.6 L38.8 16.6z M44.8 19.2c-0.9-0.1-1.8 0.2-2.4 0.8v3.8l0.1 0.2c0.7 0.5 1.6 0.9 2.6 0.6c0.9-0.2 1.6-0.9 1.9-1.7 c0.2-0.9 0.1-1.9-0.3-2.5C46.1 19.8 45.5 19.4 44.8 19.2L44.8 19.2z"/>
	<path fill-rule="evenodd" clip-rule="evenodd" fill="#5A6670" d="M85.4 18.1c0-0.9 0.7-1.5 1.6-1.5c0.9 0 1.6 0.6 1.6 1.5 c0 0.9-0.8 1.6-1.6 1.6C86.1 19.6 85.4 19 85.4 18.1L85.4 18.1z M87 19.4c0.7 0 1.3-0.6 1.3-1.3c0-0.7-0.6-1.3-1.3-1.3 c-0.7 0-1.3 0.6-1.3 1.3C85.7 18.8 86.3 19.4 87 19.4L87 19.4z M86.7 18.9h-0.3v-1.7h0.6c0.4 0 0.6 0.1 0.6 0.5 c0 0.3-0.2 0.4-0.4 0.5l0.5 0.7h-0.3L87 18.2h-0.3V18.9L86.7 18.9z M87 18c0.2 0 0.4 0 0.4-0.3c0-0.2-0.2-0.2-0.4-0.2h-0.3V18H87 L87 18z"/>
</g>
</svg>
