<svg xmlns="http://www.w3.org/2000/svg" xmlns:xlink="http://www.w3.org/1999/xlink" version="1.1" id="Layer_1" x="0px" y="0px" viewBox="0 0 189 62.42" enable-background="new 0 0 189 62.42" xml:space="preserve">
<g>
	<polygon fill="#2F5891" points="38,30.9 38,0.1 50.2,0.1 58.8,22.7 66.8,0.1 78.5,0.1 78.5,30.9 71,30.9 71,11.4 63.2,30.9 53.5,30.9 45.9,11.4 45.9,30.9"/>
	<path fill="#2F5891" d="M151.19 13.9c-0.6 1-1.3 1.8-1.6 2.9c-0.5 2.3 0.4 4.6 1.9 6.3c1.6 1.5 3.6 1.9 5.7 1.7 c2-0.6 4.2-2.3 4.8-4.3c0.9-2.7 0.1-5.4-1.9-7.3c-1.3-1.2-2.9-1.7-4.6-1.8h-14.81v19.61h-7.8V0h7.8v5h17.01c4.7 0 8.9 3.6 10.8 8.2 c2.1 4.4 1.1 10.2-2.2 13.7c-3.6 4-8.5 5.4-13.5 4.2c-4.6-1.3-9.4-5.6-9.9-10.7c-0.4-2.3 0-4.6 1-6.5L151.19 13.9L151.19 13.9z"/>
	<path fill="#2F5891" d="M128.78 7.1c2.1 2.3 2.3 5.3 2.3 8.2v15.71h-7.1v-9.8c0-3.7-0.6-8.4-2.6-9.4c-2-1-3.3-0.5-4.7 0.2 c-1.2 0.7-2.1 1.8-2.1 3.3v11.1h-7.2V5h7c0 0.8 0.3 1.7 0.5 2.4c1.3-0.9 2.4-2.1 4-2.7C122.08 3.7 126.4 4.3 128.8 7.1 L128.78 7.1z"/>
	<path fill="#2F5891" d="M178.7 5.1c0.4 0.6 0.2 1.3 0.3 2l0.2 0.2c2-3.3 6.3-1.8 9.8-2.1v6.3c-2.9 0-5.8-0.4-8.3 0.6 c-1.3 0.8-1.8 2.1-1.8 3.6v15.21h-8.1V5.1H178.7L178.7 5.1z"/>
	<path fill="#2F5891" d="M103.97 10.4c1.7 3.1 1.9 7 1.9 10.7l-0.3 0.1l-16.91 0.1c-0.2 0.1-0.2 0.4-0.1 0.5 c1.9 2.3 4.9 3.6 7.8 3.3c2.5-0.2 4.5-1.4 6.5-2.7l0.2 0.1v5.5c-1.7 1.8-3.9 2.3-6 2.9c-5.4 1-11.1-0.2-14.61-4.7 c-2.8-3.6-3.6-9.1-1.9-13.5c1.3-3.8 5-7.6 8.9-8.3C95.27 2.9 101.3 5.5 104 10.4L103.97 10.4z M95.07 10.7 c-1.2-0.7-3.3-0.7-4.6 0.1c-1.4 0.9-2.2 2.3-2.1 4c0 0.3 0.4 0.4 0.6 0.4h8l0.4-0.3c0.1-0.8-0.2-1.6-0.5-2.3 C96.57 11.9 95.9 11.2 95.1 10.7L95.07 10.7z"/>
	<path fill="#2F5891" d="M29.04 56.12c-0.3-0.6-0.1-1.6-0.2-2.3c-0.1-0.2-0.2-0.5-0.4-0.5c-5.2 4.1-13.4 5-19.21 1.7 c-6.3-3.3-9.6-10.1-9.2-17.21c0.4-5.6 4.1-10.9 9.3-13c2.6-1.2 5.6-1.2 8.7-1.2h18.01v7.3H14.04c-2.8 0-6.2 4-6.7 7.3 c-0.6 4.1 1.3 7.5 4.4 9.9c2.7 2 6.8 2.8 10.2 1.5c2.9-0.9 5.7-3.9 6.3-6.9c0.1-0.3 0.2-1-0.3-1.2h-9.8v-6.8h18.01v21.41H29.04 L29.04 56.12z"/>
	<path fill="#2F5891" d="M131.08 56.22h-7.1V42.01c0-1.6-2.2-3-4.1-3.2c-2-0.3-5.3 1.5-5.3 3.6c0 2.1 0 13.8 0 13.8h-7.2V28.01h7.2 c0 0-0.1 5 0.2 7.3l0.2 0.1c2.4-2.5 5.4-3.7 9-3.1c3.3 0.6 7.2 3.7 7.2 6.7L131.08 56.22L131.08 56.22z"/>
	<path fill="#2F5891" d="M53.45 38.51c-2.7 0.4-7-1.3-7.9 2.3v15.31h-7.4l-0.1-23.71h7.5c0 0 0.1 1.1 0.3 1.5 c0.9-0.5 1.7-1.6 2.9-1.5h4.8L53.45 38.51L53.45 38.51z"/>
	<polygon fill="#2F5891" points="133,32.4 140.8,32.4 140.8,56.2 133,56.2"/>
	<path fill="#2F5891" d="M178.8 38.81h-11c-0.4 0-0.8 0.3-1 0.6c-0.2 0.5-0.1 1 0.1 1.4c0.3 0.6 0.8 0.6 1.3 0.8 c3.9 0.2 8-0.8 10.5 2.5c1.7 2 2.4 5.1 1.3 7.6c-0.9 2.4-3.4 4.6-5.9 4.6c-2.6 0-21.01 0-21.01 0c-4.7 0-9-3.4-10.6-7.6 c-1.7-4.3-0.6-9.7 2.9-12.9c3.4-3.4 8.3-3.1 13.2-3l0.1 5.9c-3.4 0.1-7.6-0.6-9.5 2.8c-0.9 1.5-1 3.9-0.2 5.5c1 1.9 3 2.8 5.2 2.9 h19.01c0.4-0.2 0.6-0.5 0.8-0.7c0.2-0.6 0-1.1-0.4-1.5l-0.6-0.3c-3.9-0.3-8 1-10.9-1.8c-2.1-2-3.1-5.1-2.1-8.1 c0.7-2.3 3.7-5.3 6-5.3h12.9L178.8 38.81L178.8 38.81z"/>
	<path fill="#2F5891" d="M53.85 37.71c2.3-4.5 7.1-5.8 11.9-5.1c1.8 0.3 3.4 0.9 4.9 1.8c0.7-0.4-0.2-2.3 1-2.1h6.9v23.71h-7.4 c-0.1-0.5-0.1-0.9-0.5-1.2c-3.5 1.8-8.3 2.2-11.8 0.1c-4.6-2.4-6.9-7.2-6.4-12.2C52.65 41.4 53.1 39.1 53.9 37.71L53.85 37.71z M67.46 38.11c-2.6-0.4-5.1 0.8-6.4 3c-1.1 1.8-0.9 4.5 0.3 6.3c1.4 2 3.9 2.9 6.3 2.5c1.4-0.3 2.9-1 3.4-2.4 c-0.1-2.3 0.1-4.9-0.1-7.4C70.06 39.1 68.9 38.4 67.5 38.11L67.46 38.11z"/>
	<path fill="#2F5891" d="M81.06 32.41h7.5c0 0 0 1.1 0.5 1.3c1.6-0.6 3.2-1.3 5-1.5c5.1-0.5 9.9 2.9 11.9 7.6 c1.7 4.4 0.5 9.7-2.9 13c-3.2 3.4-8.4 4.4-12.7 2.9c-0.5-0.1-0.9-0.6-1.4-0.3l-0.2 0.3v6.7h-7.6L81.06 32.41L81.06 32.41z M93.97 38.11c-1.9-0.2-4 0.4-5.2 1.8v8.2l0.2 0.5c1.6 1.1 3.5 1.8 5.5 1.3c1.8-0.4 3.5-2 4.1-3.7c0.5-1.8 0.3-4.1-0.7-5.4 C96.97 39.3 95.6 38.6 94 38.11L93.97 38.11z"/>
	<path fill="#2F5891" d="M181.2 35.61c0-1.9 1.6-3.3 3.4-3.3c1.8 0 3.5 1.4 3.5 3.3c0 2-1.7 3.4-3.5 3.4 C182.7 39 181.2 37.6 181.2 35.61L181.2 35.61z M184.6 38.51c1.6 0 2.8-1.2 2.8-2.9c0-1.6-1.2-2.8-2.8-2.8 c-1.5 0-2.8 1.2-2.8 2.8C181.8 37.3 183.1 38.5 184.6 38.51L184.6 38.51z M183.9 37.51h-0.6v-3.6h1.4c0.8 0 1.3 0.3 1.3 1 c0 0.6-0.4 0.9-0.9 1l1 1.6h-0.6l-0.9-1.6h-0.7V37.51L183.9 37.51z M184.6 35.41c0.5 0 0.9-0.1 0.9-0.6c0-0.4-0.5-0.5-0.8-0.5h-0.8 v1.1H184.6L184.6 35.41z"/>
</g>
</svg>
