<svg xmlns="http://www.w3.org/2000/svg" xmlns:xlink="http://www.w3.org/1999/xlink" version="1.1" id="Layer_1" x="0px" y="0px" viewBox="0 0 200 40" enable-background="new 0 0 200 40" xml:space="preserve">
<g>
	<path fill="#FFFFFF" d="M2 23.2V1.1h8.9c4.4 0 6.9 3.1 6.9 6.7c0 3.6-2.6 6.7-6.9 6.7H4.8v8.8H2z M15 7.8c0-2.5-1.8-4.2-4.4-4.2 H4.8V12h5.8C13.2 12 15 10.3 15 7.8z"/>
	<path fill="#FFFFFF" d="M35.1 23.2l-2-4.9h-11l-2 4.9H17l8.9-22.1h3.4l8.9 22.1H35.1z M27.6 4l-4.7 11.9h9.4L27.6 4z"/>
	<path fill="#FFFFFF" d="M54.7 23.2L49 14.4h-4.4v8.8h-2.8V1.1h8.9c4 0 6.9 2.6 6.9 6.7c0 4-2.7 6.2-5.7 6.4l6 9H54.7z M54.8 7.8 c0-2.5-1.8-4.2-4.4-4.2h-5.8V12h5.8C53 12 54.8 10.3 54.8 7.8z"/>
	<path fill="#FFFFFF" d="M68.4 23.2V3.6h-7V1.1h16.8v2.5h-7v19.7H68.4z"/>
	<path fill="#FFFFFF" d="M108.8 14.4V1.1h4.8v13.1c0 3.1 1.8 5.2 5.2 5.2c3.4 0 5.2-2.1 5.2-5.2V1.1h4.8v13.3c0 5.5-3.3 9.3-10 9.3 S108.8 19.9 108.8 14.4z"/>
	<path fill="#FFFFFF" d="M133.6 23.2V1.1h15.7v4.1h-10.9v4.7H149v4.1h-10.7v5h10.9v4.1H133.6z"/>
	<path fill="#FFFFFF" d="M152.7 20.1l2.6-3.6c1.6 1.6 4 3 7 3c2.6 0 3.8-1.2 3.8-2.5c0-3.9-12.7-1.2-12.7-9.6c0-3.7 3.2-6.7 8.4-6.7 c3.5 0 6.4 1.1 8.6 3.1l-2.6 3.5c-1.8-1.7-4.2-2.4-6.4-2.4c-2 0-3.2 0.9-3.2 2.2c0 3.5 12.7 1.2 12.7 9.4c0 4-2.9 7.1-8.9 7.1 C157.8 23.6 154.8 22.2 152.7 20.1z"/>
	<polygon fill="#FFFFFF" points="66.6,3.4 66.6,3.4 66.6,3.4 66.6,3.4"/>
	<g>
		<path fill="#FFFFFF" d="M98 14.3c0.1-0.3 0.1-0.7 0.2-1c0-0.1 0-0.3 0-0.4c0-0.3 0.1-0.5 0.1-0.8v0v0c0-0.2 0-0.4 0-0.6 c-0.2-0.1-0.4-0.1-0.6-0.1c-1 0-1.9 0.8-1.9 1.9s0.8 1.9 1.9 1.9c0 0 0.1 0 0.1 0c0.1-0.1 0.1-0.3 0.1-0.4 C97.9 14.5 98 14.4 98 14.3z"/>
	</g>
	<g>
		<path fill="#FFFFFF" d="M104.1 12.2c0-6.6-4.9-11.4-11.5-11.4c0 0 0 0 0 0h0c0 0 0 0 0 0C85.9 0.7 81 5.5 81 12.2 c0 6.7 4.9 11.4 11.5 11.4c0 0 0 0 0 0c0 0 0 0-0.1 0c0 0 0 0 0.1 0c1.9 0 3.7-0.4 5.2-1.1l1.8 2.1l3.3-2.7l-1.6-1.9 C103 18 104.1 15.3 104.1 12.2z M99.3 12.2L99.3 12.2c0 0.3 0 0.6-0.1 0.8c0 0.1 0 0.3 0 0.4l0 0c0 0.3-0.1 0.7-0.2 1 c0 0.1-0.1 0.2-0.1 0.3c-0.1 0.2-0.1 0.5-0.2 0.7c0 0.1-0.1 0.2-0.1 0.3c-0.1 0.2-0.2 0.4-0.3 0.6c0 0 0 0.1-0.1 0.1l0 0 c-0.8 1.2-1.9 2.2-3.3 2.7l0 0c0 0-0.1 0-0.1 0c-0.1 0-0.2 0.1-0.3 0.1l0 0c-0.1 0-0.3 0.1-0.4 0.1c-0.1 0-0.1 0-0.2 0l0 0 c-0.3 0.1-0.7 0.1-1.1 0.1h0c-0.1 0-0.1 0-0.2 0c0 0 0 0 0 0c0 0 0 0 0 0c-0.3 0-0.6 0-0.9-0.1c-0.1 0-0.2 0-0.3 0 c-0.2 0-0.4-0.1-0.7-0.1c-0.1 0-0.1 0-0.2-0.1c-0.3-0.1-0.5-0.2-0.8-0.3c0 0-0.1 0-0.1-0.1c-0.2-0.1-0.4-0.2-0.6-0.3 c-0.1 0-0.1-0.1-0.2-0.1c-0.2-0.1-0.4-0.3-0.5-0.4c0 0-0.1-0.1-0.1-0.1c-0.2-0.2-0.4-0.4-0.6-0.6c0 0-0.1-0.1-0.1-0.1 c-0.1-0.2-0.3-0.4-0.4-0.5c0-0.1-0.1-0.1-0.1-0.2c-0.1-0.2-0.3-0.5-0.4-0.7c0 0 0 0 0 0l0 0c-0.1-0.2-0.2-0.4-0.2-0.6 c0 0 0 0 0-0.1v0c0-0.1-0.1-0.2-0.1-0.4c0 0 0 0 0 0c0-0.1-0.1-0.2-0.1-0.3l0 0c0-0.1 0-0.2-0.1-0.3c0 0 0 0 0 0c0 0 0-0.1 0-0.1 c-0.1-0.6-0.2-1.1-0.2-1.8c0 0 0 0 0 0v0v0c0-0.4 0-0.8 0.1-1.1c0 0 0-0.1 0-0.1l0 0c0.1-0.7 0.3-1.3 0.5-1.9c0 0 0 0 0 0 c0.4-0.9 0.9-1.6 1.5-2.3c0 0 0 0 0 0c0.4-0.4 0.9-0.8 1.4-1c0 0 0 0 0 0c0.3-0.1 0.5-0.3 0.8-0.4l0 0l0 0c0 0 0.1 0 0.1 0 c0.1 0 0.3-0.1 0.4-0.1c0 0 0.1 0 0.1 0l0 0c0.2 0 0.3-0.1 0.5-0.1l0 0c0 0 0.1 0 0.1 0C91.7 5 92 5 92.3 4.9c0 0 0.1 0 0.1 0 c0.1 0 0.1 0 0.2 0c0 0 0 0 0 0c0 0 0 0 0 0c0 0 0.1 0 0.1 0c0.3 0 0.5 0 0.8 0.1c0.1 0 0.2 0 0.4 0.1c0.2 0 0.3 0.1 0.5 0.1 c0.1 0 0.3 0.1 0.4 0.1c0.2 0.1 0.5 0.2 0.7 0.2c0.1 0.1 0.2 0.1 0.4 0.2c0.1 0.1 0.2 0.1 0.3 0.2c0.1 0.1 0.2 0.1 0.3 0.2 c0.1 0.1 0.2 0.2 0.3 0.3c0.1 0.1 0.2 0.1 0.3 0.2c0.2 0.2 0.3 0.3 0.5 0.5c0.1 0.1 0.1 0.2 0.2 0.2c0.1 0.1 0.2 0.3 0.3 0.4 C98 7.8 98.1 7.9 98.1 8c0.1 0.2 0.3 0.5 0.4 0.7l0 0c0.1 0.1 0.1 0.2 0.1 0.4c0 0.1 0.1 0.2 0.1 0.3v0c0 0.1 0.1 0.2 0.1 0.4 c0 0 0 0 0 0c0 0.1 0.1 0.2 0.1 0.3l0 0c0 0.1 0 0.2 0.1 0.3c0 0 0 0 0 0C99.2 10.9 99.3 11.5 99.3 12.2L99.3 12.2z"/>
		<path fill="#FFFFFF" d="M92.6 0.8C92.6 0.8 92.6 0.7 92.6 0.8C92.5 0.7 92.5 0.7 92.6 0.8C92.6 0.7 92.6 0.7 92.6 0.8 C92.6 0.8 92.6 0.8 92.6 0.8z"/>
		<polygon fill="#FFFFFF" points="92.5,23.6 92.5,23.6 92.5,23.6 92.5,23.6"/>
	</g>
	<rect x="103.9" y="22.5" transform="matrix(0.7745 -0.6326 0.6326 0.7745 5.095 74.3995)" fill="#FFFFFF" width="6" height="15"/>
	
		<rect x="109.5" y="36.2" transform="matrix(0.7745 -0.6326 0.6326 0.7745 2.0526 79.4537)" fill="#FFFFFF" width="6" height="1.3"/>
	<path fill="#FFFFFF" d="M94.2 10.7c-1.1 0-2-0.9-2-2s0.9-2 2-2c1.1 0 2 0.9 2 2S95.3 10.7 94.2 10.7z M94.2 7.8 c-0.5 0-0.9 0.4-0.9 0.9c0 0.5 0.4 0.9 0.9 0.9s0.9-0.4 0.9-0.9C95.2 8.2 94.7 7.8 94.2 7.8z"/>
	<path fill="#FFFFFF" d="M91.9 14.9c-1.1 0-2-0.9-2-2s0.9-2 2-2s2 0.9 2 2S93 14.9 91.9 14.9z M91.9 12c-0.5 0-0.9 0.4-0.9 0.9 s0.4 0.9 0.9 0.9s0.9-0.4 0.9-0.9S92.4 12 91.9 12z"/>
	<path fill="#FFFFFF" d="M92.9 8.4h-5c-0.1 0.2-0.2 0.4-0.3 0.7c0 0 0 0 0 0c0 0 0 0.1 0 0.1h5.3V8.4z"/>
	<path fill="#FFFFFF" d="M90.6 12.5h-3.8c0 0.3 0 0.5 0.1 0.8h3.8V12.5z"/>
	<g>
		<polygon fill="#FFFFFF" points="92.6,22.8 92.6,22.8 92.6,22.8 92.6,22.8"/>
		<path fill="#FFFFFF" d="M87.3 15.9C87.4 15.9 87.4 15.9 87.3 15.9c0.1 0.1 0.1 0.2 0.1 0.2c0.1 0.2 0.3 0.4 0.4 0.5c0 0 0 0 0 0h6 l2.2 1c0.2-0.2 0.5-0.3 0.7-0.5l-2.7-1.3H87.3z"/>
	</g>
	<path fill="#FFFFFF" d="M180.3 23.2v-18h-6.5V1.1h17.7v4.1h-6.4v18H180.3z"/>
	<g>
		<path fill="#FFFFFF" d="M193.8 3.4V1.5h-0.7V1.1h1.9v0.4h-0.7v1.9H193.8z"/>
		<path fill="#FFFFFF" d="M197.5 3.4V1.8l-0.7 1.6h-0.2L196 1.8v1.6h-0.5V1.1h0.7l0.6 1.4l0.6-1.4h0.7v2.3H197.5z"/>
	</g>
</g>
</svg>
